# xmcd
#
# Track frame offsets: 
#        150
#        36407
#        96105
#        121257
#        143852
#        167352
#        208082
#        232504
#        241676
#        291649
#
# Disc length: 4391 seconds
#
# Revision: 1
# Processed by: cddbd v1.5.2PL0 Copyright (c) Steve Scherf et al.
# Submitted via: ExactAudioCopyFreeDBPlugin 1.0
#
DISCID=8411250a
DTITLE=Plastikman - Arkives 1993 - 2010 [CD3 | Musik)
DYEAR=2011
DGENRE=Techno
TTITLE0=Konception
TTITLE1=Plastique
TTITLE2=Kriket
TTITLE3=Fuk
TTITLE4=Outbak
TTITLE5=Ethnik
TTITLE6=Plasmatik
TTITLE7=Goo
TTITLE8=Marbles
TTITLE9=Lasttrak
EXTD=
EXTT0=
EXTT1=
EXTT2=
EXTT3=
EXTT4=
EXTT5=
EXTT6=
EXTT7=
EXTT8=
EXTT9=
PLAYORDER=
